<?xml version="1.0" standalone="no"?>
<!DOCTYPE svg PUBLIC "-//W3C//DTD SVG 20010904//EN"
 "http://www.w3.org/TR/2001/REC-SVG-20010904/DTD/svg10.dtd">
<svg version="1.0" xmlns="http://www.w3.org/2000/svg"
 width="260.000000pt" height="260.000000pt" viewBox="0 0 260.000000 260.000000"
 preserveAspectRatio="xMidYMid meet">
<metadata>
Created by potrace 1.11, written by Peter Selinger 2001-2013
</metadata>
<g transform="translate(0.000000,260.000000) scale(0.100000,-0.100000)"
fill="#000000" stroke="none">
<path d="M770 1536 c0 -288 4 -475 10 -491 13 -33 88 -105 111 -105 21 0 119
87 119 106 0 8 -3 14 -7 14 -5 0 -6 29 -5 65 2 36 0 65 -5 65 -4 0 -7 19 -5
43 2 23 -6 154 -16 291 l-20 249 -36 69 c-44 84 -104 158 -128 158 -17 0 -18
-25 -18 -464z"/>
<path d="M2007 1790 c-58 -7 -103 -23 -187 -63 -35 -18 -206 -165 -315 -272
-12 -11 -54 -49 -95 -85 -65 -57 -109 -97 -220 -200 -28 -26 -131 -118 -237
-212 l-62 -55 -383 383 c-211 211 -390 384 -399 384 -9 0 -37 -21 -63 -46
l-46 -47 0 -473 0 -473 22 -21 c20 -18 33 -20 108 -18 l85 3 0 328 c0 180 0
327 0 327 0 0 141 -140 312 -310 172 -171 316 -310 322 -310 5 0 13 -9 16 -20
9 -28 25 -25 65 13 19 18 62 58 96 88 165 148 243 219 385 349 56 52 128 118
158 145 30 28 84 77 120 111 36 33 114 103 172 155 58 51 145 130 193 174 49
44 100 89 114 101 17 14 23 27 19 37 -7 19 -70 21 -180 7z"/>
<path d="M1515 1114 c-28 -7 -149 -119 -141 -132 3 -5 45 -30 93 -55 49 -25
124 -64 168 -88 44 -24 118 -63 165 -87 47 -24 135 -70 196 -103 l112 -59 248
1 c137 0 242 3 234 6 -8 3 -17 9 -20 12 -6 7 -128 79 -175 103 -16 9 -64 33
-105 55 -41 22 -129 68 -195 103 -66 34 -158 83 -205 108 -223 118 -255 133
-305 137 -27 2 -59 1 -70 -1z"/>
</g>
</svg>
