<?xml version="1.0" encoding="UTF-8"?><svg id="uuid-2ea2992e-0389-4f3d-82d1-a00c55f0ab83" xmlns="http://www.w3.org/2000/svg" viewBox="0 0 74.32 13.01" fill="#F6C700"><g id="uuid-5a5f31fb-5360-47bf-8267-ff7b7f7064bd"><path d="m5.32,9.74c-.23.18-.52.33-.87.44-.35.11-.69.17-1.03.17-.6,0-1.12-.11-1.57-.33-.44-.22-.79-.54-1.03-.95s-.37-.91-.37-1.49.13-1.08.4-1.49.61-.73,1.04-.94c.43-.22.88-.32,1.35-.32s.88.06,1.23.19c.35.13.65.3.89.5l-.82,1.08c-.11-.09-.27-.18-.46-.27-.2-.09-.43-.14-.69-.14-.23,0-.44.06-.64.18-.19.12-.34.28-.46.49-.11.21-.17.45-.17.72,0,.26.06.49.18.71.12.22.29.39.5.51.21.12.46.19.75.19.18,0,.35-.03.51-.08.16-.05.29-.13.4-.22l.84,1.06Z"/><path d="m6.61,10.21V.74h1.64v5.28-.2c.17-.33.43-.59.77-.8s.75-.31,1.24-.31.91.15,1.24.44.5.67.51,1.13v3.92h-1.68v-3.3c0-.23-.07-.42-.19-.56-.12-.14-.31-.21-.58-.21-.26,0-.48.08-.67.25s-.34.4-.44.68c-.1.29-.16.62-.16,1v2.14h-1.68Z"/><path d="m13.7,3.11c0-.25.1-.45.29-.61.2-.16.41-.24.63-.24s.43.08.62.24.28.36.28.61-.09.45-.28.61c-.19.16-.39.23-.62.23s-.43-.08-.63-.23c-.2-.16-.29-.36-.29-.61Zm.04,1.86h1.68v5.24h-1.68v-5.24Z"/><path d="m17.64,2.66h1.68v2.28h1.27v1.31h-1.27v3.96h-1.68v-3.96h-.82v-1.31h.82v-2.28Z"/><path d="m23.39,4.97l.16,1.44-.04-.22c.15-.31.36-.58.62-.8.26-.22.53-.39.79-.51.26-.12.46-.18.59-.18l-.08,1.68c-.39-.05-.73.02-1.01.19-.28.18-.5.41-.65.7-.15.29-.23.58-.23.89v2.05h-1.67v-5.24h1.51Z"/><path d="m28.82,10.36c-.49,0-.93-.1-1.33-.29s-.71-.5-.94-.91c-.23-.41-.35-.93-.35-1.56,0-.59.12-1.1.36-1.54.24-.43.56-.77.95-1,.39-.24.81-.35,1.25-.35.52,0,.91.09,1.18.26.27.17.49.36.67.57l-.07.2.16-.77h1.56v5.24h-1.68v-1.14l.13.36s-.06.05-.14.14c-.08.09-.2.2-.35.32-.16.12-.35.23-.58.32s-.5.14-.81.14Zm.48-1.37c.2,0,.38-.03.54-.09s.3-.15.42-.26c.12-.12.22-.26.31-.44v-1.28c-.06-.18-.16-.33-.29-.45-.13-.12-.28-.22-.46-.29-.18-.07-.37-.1-.59-.1-.24,0-.46.06-.67.19-.2.12-.37.29-.49.51-.12.22-.18.46-.18.74s.06.53.19.76.3.4.51.53.44.19.69.19Z"/><path d="m33.57,8.72c.18-.17.38-.25.59-.25.2,0,.39.08.57.25.18.17.27.38.27.62,0,.26-.09.47-.27.63-.18.16-.37.23-.57.23-.22,0-.41-.08-.59-.23-.18-.16-.27-.37-.27-.63,0-.25.09-.46.27-.62Z"/><path d="m37.75,10.32c-.43,0-.83-.08-1.21-.23-.37-.15-.69-.36-.94-.64l.7-.92c.26.23.49.4.71.5.22.1.42.15.59.15.14,0,.26-.01.37-.04.11-.03.19-.07.26-.13s.1-.14.1-.23c0-.14-.05-.24-.16-.32-.11-.08-.25-.15-.41-.2s-.35-.11-.54-.16c-.48-.15-.83-.37-1.04-.67-.21-.29-.32-.61-.32-.95,0-.26.07-.53.21-.8s.36-.49.67-.67c.31-.18.71-.27,1.19-.27.44,0,.81.04,1.12.13.3.09.59.23.86.43l-.64.98c-.15-.12-.32-.22-.51-.31s-.36-.13-.52-.14c-.14,0-.27,0-.37.05s-.18.09-.23.16-.08.13-.08.2c0,.15.05.27.17.36s.28.16.47.2c.19.05.38.1.56.17.26.08.48.19.66.32.18.14.33.3.43.49.1.19.15.41.15.68,0,.32-.08.62-.25.91-.16.28-.41.51-.74.69-.33.18-.75.26-1.27.26Z"/><path d="m41.9,2.66h1.68v2.28h1.27v1.31h-1.27v3.96h-1.68v-3.96h-.82v-1.31h.82v-2.28Z"/><path d="m47.65,4.97l.16,1.44-.04-.22c.15-.31.36-.58.62-.8.26-.22.53-.39.79-.51.26-.12.46-.18.59-.18l-.08,1.68c-.39-.05-.73.02-1.01.19-.28.18-.5.41-.65.7-.15.29-.23.58-.23.89v2.05h-1.67v-5.24h1.51Z"/><path d="m53.4,10.36c-.64,0-1.18-.12-1.63-.36-.44-.24-.78-.57-1.01-1-.23-.42-.35-.91-.35-1.46s.14-1,.41-1.43c.27-.42.64-.76,1.09-1.01s.96-.38,1.52-.38c.75,0,1.37.22,1.85.65s.8,1.07.94,1.89l-4.08,1.3-.37-.91,2.95-1-.35.16c-.06-.21-.18-.39-.34-.55-.16-.16-.41-.23-.74-.23-.25,0-.47.06-.65.17-.19.12-.33.28-.43.49-.1.21-.15.46-.15.75,0,.33.06.6.18.82.12.22.28.39.49.5.21.11.44.17.7.17.18,0,.36-.03.53-.1.17-.06.34-.15.51-.25l.74,1.25c-.28.16-.58.29-.91.38-.32.1-.63.14-.92.14Z"/><path d="m59.66,10.36c-.49,0-.93-.1-1.33-.29s-.71-.5-.94-.91c-.23-.41-.35-.93-.35-1.56,0-.59.12-1.1.36-1.54.24-.43.56-.77.95-1,.39-.24.81-.35,1.25-.35.52,0,.91.09,1.18.26.27.17.49.36.67.57l-.07.2.16-.77h1.56v5.24h-1.68v-1.14l.13.36s-.06.05-.14.14c-.08.09-.2.2-.35.32s-.35.23-.58.32-.5.14-.81.14Zm.48-1.37c.2,0,.38-.03.54-.09s.3-.15.42-.26c.12-.12.22-.26.31-.44v-1.28c-.06-.18-.16-.33-.29-.45-.13-.12-.28-.22-.46-.29-.18-.07-.37-.1-.59-.1-.24,0-.46.06-.67.19-.2.12-.37.29-.49.51-.12.22-.18.46-.18.74s.06.53.19.76c.13.22.3.4.51.53.21.13.44.19.69.19Z"/><path d="m66.35,4.97l.13.92-.02-.07c.21-.35.47-.63.78-.82.31-.2.69-.29,1.13-.29.29,0,.54.04.76.12.22.08.41.2.56.35.15.16.26.36.31.61h-.06c.22-.32.49-.58.81-.78.32-.2.65-.3.99-.3.52,0,.93.15,1.24.44s.47.67.47,1.13v3.94h-1.67v-3.24c0-.23-.04-.42-.11-.57-.06-.15-.21-.23-.44-.25-.27,0-.5.09-.69.28-.19.19-.33.43-.42.72-.09.29-.14.59-.14.91v2.15h-1.68v-3.24c0-.23-.05-.42-.13-.57s-.23-.23-.46-.25c-.26,0-.49.09-.67.28s-.32.43-.41.71-.14.58-.14.89v2.17h-1.68v-5.24h1.52Z"/></g></svg>